<svg width="260" height="120" viewBox="0 0 260 120" fill="none" xmlns="http://www.w3.org/2000/svg">
<path d="M109.758 56.3619C109.135 53.8687 107.538 52.0766 104.382 52.0766C99.7463 52.0766 97.8374 56.1671 97.8374 60.2966C97.8374 64.426 99.7853 68.5165 104.382 68.5165C107.733 68.5165 109.564 66.0233 109.875 62.8677H113.576C113.264 68.049 109.602 71.5941 104.382 71.5941C97.9153 71.5941 94.0586 66.4518 94.0586 60.2966C94.0586 54.1414 97.9153 48.999 104.382 48.999C109.252 49.038 113.07 51.726 113.537 56.3619H109.758ZM115.836 63.2573C115.836 58.4656 118.718 55.0374 123.705 55.0374C128.691 55.0374 131.574 58.4656 131.574 63.2573C131.574 68.049 128.691 71.5162 123.705 71.5162C118.718 71.5162 115.836 68.049 115.836 63.2573ZM128.146 63.2573C128.146 60.5693 126.783 57.7644 123.705 57.7644C120.627 57.7644 119.264 60.5693 119.264 63.2573C119.264 65.9453 120.627 68.7892 123.705 68.7892C126.783 68.7892 128.146 65.9843 128.146 63.2573ZM134.535 49.5055H137.963V52.7779H134.535V49.5055ZM134.535 55.4659H137.963V71.0877H134.535V55.4659ZM141.742 55.4659H145.014V57.7644L145.092 57.8423C146.105 56.1282 147.936 55.0374 149.962 55.0763C153.351 55.0763 155.494 56.9073 155.494 60.3745V71.0877H152.066V61.2705C151.988 58.8162 151.053 57.7644 149.027 57.7644C146.729 57.7644 145.248 59.5564 145.248 61.8549V71.0877H141.82V55.4659H141.742ZM178.401 71.0877H175.985L175.401 68.5555C173.375 70.8539 171.544 71.5941 168.895 71.5941C162.428 71.5941 158.571 66.4518 158.571 60.2966C158.571 54.1414 162.428 48.999 168.895 48.999C173.609 48.999 177.583 51.4923 178.128 56.3619H174.427C174.076 53.5181 171.583 52.0766 168.856 52.0766C164.22 52.0766 162.311 56.1671 162.311 60.2966C162.311 64.426 164.259 68.5165 168.856 68.5165C172.713 68.5944 174.856 66.257 174.894 62.595H169.168V59.7122H178.362L178.401 71.0877ZM184.712 64.1533C184.712 66.6076 186.036 68.7892 188.919 68.7892C190.906 68.7892 192.114 67.9322 192.737 66.1791H196.009C195.269 69.6073 192.347 71.5162 188.919 71.5162C184.01 71.5162 181.283 68.088 181.283 63.2963C181.283 58.8552 184.205 55.0374 188.841 55.0374C193.75 55.0374 196.788 59.4785 196.204 64.1533H184.712ZM192.737 61.8938C192.62 59.7122 191.14 57.7644 188.802 57.7644C186.426 57.7644 184.79 59.5564 184.673 61.8938H192.737ZM209.371 60.6861C209.099 58.7772 207.696 57.7644 205.787 57.7644C203.995 57.7644 201.502 58.6993 201.502 63.4521C201.502 66.0622 202.632 68.7892 205.632 68.7892C207.618 68.7892 209.021 67.4647 209.333 65.2052H212.761C212.137 69.2567 209.644 71.4772 205.593 71.4772C200.684 71.4772 197.996 68.0101 197.996 63.4131C197.996 58.6993 200.567 54.9984 205.71 54.9984C209.333 54.9984 212.41 56.8294 212.761 60.6472H209.371V60.6861ZM215.721 49.5055H219.15V61.7769L225.383 55.4659H229.629L223.63 61.1926L230.175 71.0877H225.967L221.175 63.4911L219.111 65.4779V71.0877H215.683V49.5055H215.721ZM231.11 63.2573C231.11 58.4656 233.992 55.0374 238.979 55.0374C244.004 55.0374 246.848 58.4656 246.848 63.2573C246.848 68.049 243.965 71.5162 238.979 71.5162C233.992 71.5162 231.11 68.049 231.11 63.2573ZM243.459 63.2573C243.459 60.5693 242.095 57.7644 239.018 57.7644C235.94 57.7644 234.577 60.5693 234.577 63.2573C234.577 65.9453 235.94 68.7892 239.018 68.7892C242.095 68.7892 243.459 65.9843 243.459 63.2573Z" fill="#4B4B4B"/>
<path d="M74.9299 59.868C74.9688 72.3732 67.528 83.6707 55.9967 88.5014C44.4654 93.3321 31.1811 90.7609 22.2989 81.9566C13.4167 73.1523 10.7286 59.868 15.4424 48.2977C20.1562 36.7275 31.4148 29.1698 43.8811 29.0919C60.9832 29.0529 74.852 42.8048 74.9299 59.868Z" fill="#8DC63F"/>
<path d="M72.6315 59.8678C72.6704 71.4381 65.775 81.8786 55.1008 86.3586C44.4266 90.8387 32.1551 88.4233 23.9352 80.3203C15.7152 72.1782 13.222 59.9068 17.5852 49.2325C21.9484 38.5194 32.3499 31.546 43.8812 31.4681C59.6977 31.3902 72.5536 44.0902 72.6315 59.8678Z" fill="#F9E988"/>
<path d="M44.583 33.2992C46.414 32.9875 48.245 32.9875 50.076 33.2992C51.9069 33.5719 53.699 34.1952 55.3352 35.0522C56.9714 35.9483 58.3738 37.1559 59.7763 38.2857C61.1787 39.4154 62.5812 40.5841 63.9057 41.8697C65.2692 43.1164 66.4379 44.5578 67.4118 46.116C68.4247 47.6743 69.2428 49.3495 69.8661 51.0636C71.0738 54.5697 71.4634 58.3486 70.879 61.9326H70.6842C70.0999 58.3486 69.2818 54.9593 67.9962 51.7259C67.4118 50.0897 66.6717 48.4924 65.8925 46.9731C65.0355 45.4538 64.1394 43.9344 63.1266 42.532C62.1137 41.0906 60.8281 39.805 59.3867 38.7532C57.9453 37.7013 56.2701 37.0391 54.6729 36.4157C53.0756 35.7924 51.4394 35.1302 49.7643 34.6237C48.0891 34.1562 46.375 33.7667 44.583 33.416V33.2992Z" fill="white"/>
<path d="M58.5289 49.7784C56.4642 49.194 54.3215 48.3369 52.1399 47.4799C52.0231 46.9345 51.5166 46.2722 50.5427 45.4152C49.1402 44.1685 46.4522 44.2075 44.1537 44.7529C41.6215 44.1685 39.0893 43.9348 36.674 44.5191C16.9228 49.9731 28.1034 63.2185 20.8574 76.5808C21.8703 78.7624 33.012 91.5403 49.1013 88.1121C49.1013 88.1121 43.6083 74.9057 56.0356 68.5557C66.1255 63.4133 73.3715 53.8299 58.5289 49.7784Z" fill="#8BC53F"/>
<path d="M44.1543 44.7528C45.5957 44.8697 50.816 46.5449 52.1405 47.4798C51.0107 44.2464 47.2709 43.8179 44.1543 44.7528Z" fill="#009345"/>
<path d="M60.9838 58.4652C60.9838 59.517 59.6983 60.0624 58.9581 59.3222C58.2179 58.582 58.7243 57.2965 59.7762 57.2575C60.4384 57.2965 60.9838 57.8029 60.9838 58.4652ZM45.5179 52.9722C45.5179 55.1928 44.1544 57.2185 42.0897 58.0756C40.025 58.9327 37.6486 58.4652 36.0513 56.8679C34.4541 55.2707 33.9866 52.8943 34.8437 50.8296C35.7007 48.7649 37.7265 47.4014 39.947 47.4014C41.4274 47.4014 42.8299 47.9857 43.8427 48.9986C44.9335 50.0894 45.5179 51.4919 45.5179 52.9722Z" fill="white"/>
<path d="M43.8815 53.0118C43.8815 54.5701 42.9465 56.0115 41.4662 56.5959C40.0248 57.1802 38.3496 56.8685 37.2199 55.7388C36.0901 54.609 35.7785 52.9728 36.3628 51.4925C36.9472 50.0511 38.3886 49.0771 39.9469 49.0771C42.1284 49.1161 43.8815 50.8692 43.8815 53.0118Z" fill="#58595B"/>
<path d="M65.4634 60.9202C60.9833 64.0757 55.8799 66.4521 48.6729 66.4521C45.2836 66.4521 44.6214 62.8681 42.3618 64.6211C41.1931 65.5172 37.1416 67.5429 33.9082 67.426C30.6747 67.2702 25.4545 65.3613 24.0131 58.5049C23.4287 65.4003 23.156 70.4647 20.5459 76.2693C25.6882 84.5282 37.9597 90.8782 49.1014 88.1512C47.8937 79.7754 55.2177 71.5945 59.3082 67.426C60.9054 65.7899 63.9051 63.2187 65.4634 60.9202Z" fill="#8BC53F"/>
<path d="M65.2688 61.1143C63.8663 62.3998 62.2301 63.3348 60.555 64.1529C58.8409 64.971 57.0878 65.5943 55.2568 66.1008C53.4258 66.5682 51.5169 66.9189 49.608 66.763C47.6602 66.6072 45.7123 65.9449 44.4268 64.5035L44.5047 64.4256C46.063 65.4385 47.8939 65.7891 49.686 65.867C51.5169 65.906 53.3479 65.7891 55.1399 65.4385C56.932 65.0489 58.724 64.5035 60.4381 63.8023C62.1522 63.1011 63.8274 62.283 65.3077 61.1143H65.2688Z" fill="#58595B"/>
</svg>
