<svg width="260" height="120" viewBox="0 0 260 120" fill="none" xmlns="http://www.w3.org/2000/svg">
<path d="M57.2455 60.4298V60.3584C57.2088 50.2497 48.8514 42 38.6227 42C28.394 42 20 50.2497 20 60.4298C20 70.6112 28.3561 78.8443 38.6227 78.8443C43.3338 78.8475 47.8647 77.0808 51.2727 73.9119C51.6084 73.6131 51.8085 73.1966 51.829 72.7541C51.8495 72.3115 51.6888 71.8792 51.3821 71.5522C51.0754 71.2251 50.648 71.0302 50.1937 71.0102C49.7395 70.9902 49.2958 71.1468 48.9601 71.4456L48.9235 71.4813C47.453 72.8433 45.7151 73.9018 43.8143 74.5931C41.9135 75.2845 39.8889 75.5945 37.8621 75.5045C35.8353 75.4146 33.848 74.9265 32.0196 74.0696C30.1912 73.2127 28.5593 72.0047 27.222 70.5181L35.1774 58.0886V63.8402C35.1774 66.5884 36.2774 67.4828 37.2019 67.7329C38.1264 67.9829 39.5132 67.8018 41.0152 65.481L45.3799 58.576C45.4964 58.3744 45.6313 58.183 45.7806 58.0031V61.5054C45.7806 64.0762 46.8439 66.1482 48.676 67.1472C49.5217 67.5959 50.4763 67.813 51.4385 67.7755C52.4006 67.7379 53.3344 67.4472 54.1406 66.9342C56.2568 65.5958 57.3935 63.252 57.2455 60.4298ZM52.4055 64.0469C52.1116 64.2441 51.7689 64.3613 51.413 64.3862C51.0571 64.4111 50.7007 64.3428 50.381 64.1885C49.6476 63.7611 49.2063 62.7978 49.2063 61.476V57.4277C49.2063 55.5012 48.4363 54.1067 47.1176 53.752C44.8796 53.0936 43.1956 55.787 42.571 56.7872L38.6227 62.965V55.3583C38.5861 53.6091 37.9981 52.5731 36.8981 52.2503C36.1648 52.0372 35.0648 52.1457 34.0027 53.7175L25.1674 67.5032C23.992 65.3211 23.376 62.8942 23.372 60.4298C23.372 52.1074 30.2261 45.3568 38.6227 45.3568C47.0194 45.3568 53.8735 52.1074 53.8735 60.4298V60.5026C53.9612 62.1076 53.4321 63.3962 52.4068 64.0367L52.4055 64.0469ZM83.2015 54.1437C83.4445 54.2953 83.6474 54.5003 83.7941 54.7423C83.9408 54.9843 84.0272 55.2565 84.0462 55.5369C84.0437 55.9469 83.8779 56.3399 83.5837 56.6331C83.2896 56.9263 82.8902 57.0969 82.4695 57.1088C82.27 57.0939 82.0728 57.0576 81.8815 57.0003C80.8545 56.2497 79.6087 55.8376 78.3249 55.824C75.2095 55.824 73.0842 58.2864 73.0842 61.3574C73.0842 64.4284 75.2475 66.8589 78.3249 66.8589C79.8041 66.8568 81.2242 66.293 82.2836 65.287C82.5533 65.102 82.8729 65.0025 83.2015 65.0012C83.4646 64.9984 83.7238 65.0637 83.9525 65.1905C84.1812 65.3172 84.3712 65.5009 84.5031 65.7227C84.6349 65.9446 84.704 66.1965 84.7031 66.4529C84.7022 66.7092 84.6314 66.9607 84.498 67.1817C84.3709 67.3986 84.1902 67.5836 83.9715 67.7176C82.8983 68.587 81.6261 69.1922 80.2624 69.4822C78.8986 69.7721 77.4833 69.7383 76.1358 69.3835C74.7883 69.0288 73.5482 68.3635 72.52 67.4438C71.4917 66.5241 70.7056 65.3769 70.2278 64.0991C69.7501 62.8213 69.5948 61.4503 69.775 60.1017C69.9552 58.7532 70.4656 57.4666 71.2632 56.3506C72.0608 55.2345 73.1221 54.3217 74.3578 53.6891C75.5934 53.0566 76.9671 52.7228 78.3629 52.716C80.0888 52.6904 81.7807 53.188 83.2015 54.1437ZM91.9256 57.7046C90.281 57.6978 88.7007 58.3265 87.5311 59.4529C86.3614 60.5793 85.6978 62.1116 85.6857 63.7139C85.6959 65.3251 86.3546 66.868 87.5203 68.0109C88.686 69.1537 90.2655 69.8052 91.919 69.8253C95.1457 69.8253 97.8957 67.0031 97.8957 63.7139C97.8957 60.4273 95.1889 57.7046 91.9256 57.7046ZM91.8889 66.8487C90.3502 66.8487 89.0669 65.4912 89.0669 63.7407C89.0669 61.92 90.3502 60.8113 91.8889 60.8113C93.3202 60.8113 94.5276 61.9558 94.5276 63.7407C94.5276 65.5269 93.3202 66.8589 91.8889 66.8589V66.8487ZM99.9543 67.9663V59.5354C99.9501 59.3169 99.9907 59.0996 100.074 58.8965C100.157 58.6933 100.28 58.5083 100.437 58.3523C100.595 58.1962 100.782 58.0722 100.989 57.9875C101.196 57.9028 101.418 57.8591 101.642 57.859C102.094 57.8647 102.525 58.0442 102.841 58.3582C103.157 58.6723 103.333 59.0955 103.33 59.5354V67.9663C103.333 68.4065 103.158 68.83 102.841 69.1444C102.525 69.4587 102.094 69.6384 101.642 69.6441C101.193 69.6313 100.766 69.4494 100.451 69.1365C100.137 68.8237 99.9585 68.4043 99.9543 67.9663ZM99.6976 54.6795C99.6903 54.425 99.735 54.1716 99.8291 53.9341C99.9233 53.6966 100.065 53.4797 100.246 53.296C100.427 53.1124 100.644 52.9656 100.883 52.8643C101.123 52.7629 101.381 52.709 101.642 52.7058C101.905 52.7088 102.165 52.7622 102.407 52.863C102.648 52.9639 102.867 53.1101 103.051 53.2934C103.234 53.4767 103.379 53.6935 103.477 53.9313C103.574 54.1691 103.623 54.4234 103.62 54.6795C103.62 55.1861 103.413 55.6719 103.045 56.0301C102.678 56.3883 102.179 56.5895 101.659 56.5895C101.139 56.5895 100.641 56.3883 100.273 56.0301C99.9055 55.6719 99.6976 55.1861 99.6976 54.6795ZM109.78 63.3962V67.9663C109.78 68.4025 109.602 68.8208 109.285 69.1292C108.969 69.4377 108.539 69.6109 108.092 69.6109C107.644 69.6109 107.215 69.4377 106.898 69.1292C106.582 68.8208 106.404 68.4025 106.404 67.9663V59.1438C106.404 58.8074 106.541 58.4848 106.785 58.247C107.029 58.0092 107.36 57.8756 107.705 57.8756C108.051 57.8756 108.382 58.0092 108.626 58.247C108.87 58.4848 109.007 58.8074 109.007 59.1438C109.488 58.6648 110.067 58.29 110.707 58.0438C111.347 57.7976 112.032 57.6855 112.72 57.7148C116.094 57.7148 117.596 60.1798 117.596 63.002V67.9663C117.596 68.4025 117.418 68.8208 117.102 69.1292C116.785 69.4377 116.356 69.6109 115.908 69.6109C115.461 69.6109 115.031 69.4377 114.715 69.1292C114.398 68.8208 114.22 68.4025 114.22 67.9663V63.3962C114.22 61.966 114.038 60.7654 111.912 60.7654C110.411 60.7654 109.786 61.9787 109.786 63.3962H109.78ZM128.514 65.1454C128.342 65.1458 128.173 65.107 128.02 65.0321C127.867 64.9572 127.734 64.8483 127.632 64.7142L123.71 60.5714V67.9663C123.717 68.1861 123.678 68.4048 123.596 68.6096C123.514 68.8144 123.39 69.0011 123.233 69.1587C123.076 69.3163 122.888 69.4416 122.68 69.5271C122.472 69.6127 122.249 69.6567 122.023 69.6567C121.797 69.6567 121.574 69.6127 121.366 69.5271C121.158 69.4416 120.97 69.3163 120.813 69.1587C120.656 69.0011 120.532 68.8144 120.45 68.6096C120.368 68.4048 120.329 68.1861 120.336 67.9663V53.3207C120.388 53.1993 120.474 53.0947 120.585 53.019C120.695 52.9434 120.825 52.8998 120.96 52.8933C121.251 52.9414 121.513 53.0939 121.694 53.3207L127.964 60.1798C128.028 60.2681 128.109 60.3429 128.204 60.3995C128.298 60.4561 128.404 60.4933 128.514 60.5089C128.732 60.4677 128.927 60.3507 129.064 60.1798L135.331 53.3207C135.418 53.2057 135.527 53.1087 135.653 53.0353C135.779 52.9619 135.918 52.9137 136.063 52.8933C136.2 52.89 136.335 52.9297 136.448 53.0067C136.56 53.0836 136.644 53.1937 136.688 53.3207V67.9676C136.692 68.1862 136.651 68.4034 136.568 68.6066C136.485 68.8097 136.362 68.9947 136.205 69.1508C136.048 69.3069 135.86 69.4309 135.653 69.5156C135.446 69.6003 135.224 69.644 135 69.6441C134.548 69.6377 134.118 69.4578 133.802 69.1436C133.486 68.8293 133.31 68.4062 133.313 67.9663V60.5714L129.387 64.7142C129.161 64.9602 128.847 65.1142 128.51 65.1454H128.514ZM160.224 60.7526H159.856C157.73 60.8572 157.328 62.0387 157.328 63.3834V67.9536C157.328 68.3897 157.15 68.8078 156.834 69.1161C156.517 69.4245 156.088 69.5978 155.64 69.5982C155.193 69.5975 154.764 69.4238 154.448 69.1152C154.131 68.8066 153.954 68.3884 153.954 67.9523V59.145C153.954 58.8086 154.092 58.486 154.336 58.2481C154.58 58.0102 154.911 57.8762 155.257 57.8756C155.602 57.8762 155.933 58.0102 156.177 58.2482C156.421 58.4862 156.558 58.8087 156.558 59.145C157.804 58.0006 158.83 57.7505 159.856 57.7135H160.194C160.605 57.7241 160.996 57.8905 161.283 58.1774C161.57 58.4642 161.732 58.8489 161.732 59.2497C161.732 59.6413 161.575 60.0174 161.294 60.298C161.014 60.5786 160.632 60.7417 160.23 60.7526H160.224ZM173.238 67.1804C173.392 67.4164 173.481 67.6869 173.495 67.9663C173.476 68.3968 173.292 68.8048 172.98 69.1094C172.667 69.4141 172.248 69.5931 171.807 69.6109C171.223 69.6109 170.707 69.1797 170.305 68.6795L166.42 64.2804V67.9293C166.42 68.3653 166.243 68.7835 165.926 69.0918C165.61 69.4001 165.181 69.5733 164.733 69.5733C164.286 69.5733 163.856 69.4001 163.54 69.0918C163.224 68.7835 163.046 68.3653 163.046 67.9293V54.5392C163.045 54.2138 163.144 53.8955 163.329 53.6248C163.514 53.354 163.778 53.143 164.086 53.0184C164.395 52.8939 164.734 52.8615 165.062 52.9253C165.389 52.9891 165.69 53.1463 165.925 53.3769C166.242 53.6843 166.42 54.1041 166.42 54.5379V62.8948L170.305 58.7176C170.707 58.2877 171.186 57.8245 171.77 57.8245C172.198 57.8429 172.603 58.0192 172.903 58.3178C173.202 58.6163 173.374 59.0147 173.383 59.4321C173.385 59.6971 173.308 59.9569 173.163 60.181L170.086 63.4689L173.238 67.1855V67.1804ZM193.622 69.7883H192.704C190.139 69.7883 188.634 68.6796 188.634 64.7869V60.7526H187.757C187.343 60.7526 186.946 60.5925 186.654 60.3076C186.361 60.0226 186.197 59.6361 186.197 59.2331C186.197 58.8301 186.361 58.4436 186.654 58.1586C186.946 57.8736 187.343 57.7135 187.757 57.7135H188.621V54.6068C188.613 54.2772 188.707 53.953 188.892 53.6766C189.076 53.4002 189.342 53.1846 189.654 53.0579C189.861 52.9737 190.084 52.9303 190.307 52.9303C190.758 52.9377 191.188 53.1177 191.504 53.4314C191.82 53.7451 191.997 54.1673 191.995 54.6068V57.7046H193.386C193.794 57.7166 194.18 57.8843 194.461 58.1715C194.743 58.4587 194.897 58.8423 194.891 59.2394C194.877 59.6275 194.715 59.9967 194.437 60.2747C194.159 60.5526 193.784 60.7194 193.386 60.7424H191.995V64.1362C191.995 66.3855 192.103 66.8487 193.13 66.8487H193.609C194.007 66.8504 194.389 67.0056 194.67 67.2805C194.952 67.5554 195.11 67.9277 195.111 68.3159C195.102 68.7013 194.941 69.0685 194.661 69.341C194.381 69.6136 194.004 69.7706 193.609 69.7793L193.622 69.7883ZM209.933 54.1437C210.176 54.2956 210.378 54.5008 210.525 54.7427C210.671 54.9847 210.757 55.2566 210.777 55.5369C210.774 55.947 210.609 56.3402 210.315 56.6335C210.02 56.9268 209.621 57.0972 209.2 57.1088C209.001 57.0931 208.804 57.0568 208.613 57.0003C207.588 56.2492 206.342 55.837 205.059 55.824C201.941 55.824 199.815 58.2864 199.815 61.3574C199.815 64.4284 201.978 66.8589 205.059 66.8589C206.539 66.8568 207.959 66.293 209.018 65.287C209.286 65.1033 209.606 65.0038 209.933 65.0012C210.131 64.9995 210.328 65.036 210.511 65.1087C210.695 65.1814 210.861 65.2889 211.002 65.4248C211.235 65.6515 211.384 65.9472 211.426 66.2655C211.468 66.5837 211.399 66.9065 211.232 67.183C211.104 67.401 210.922 67.5843 210.702 67.7163C209.629 68.5841 208.358 69.1878 206.996 69.4765C205.633 69.7651 204.219 69.7303 202.874 69.3749C200.842 68.8398 199.079 67.6053 197.91 65.9002C196.742 64.1951 196.247 62.1351 196.519 60.1019C196.789 58.0684 197.807 56.1994 199.383 54.8412C200.96 53.4831 202.989 52.728 205.093 52.716C206.821 52.6839 208.514 53.1835 209.933 54.1437ZM149.63 57.8232C149.458 57.8232 149.288 57.8566 149.13 57.9216C148.972 57.9865 148.829 58.0817 148.709 58.2014C148.589 58.3212 148.495 58.4631 148.432 58.6188C148.369 58.7745 148.339 58.9408 148.344 59.108L148.273 59.5035C147.789 58.9455 147.189 58.4943 146.512 58.1801C145.836 57.8659 145.098 57.696 144.348 57.6816C141.051 57.6816 138.669 60.3941 138.669 63.6782C138.669 66.9635 141.013 69.7883 144.166 69.7883C145.486 69.7883 147.575 69.2154 148.236 67.9663L148.311 68.358C148.308 68.5262 148.34 68.6932 148.405 68.8489C148.471 69.0045 148.568 69.1454 148.692 69.2628C148.815 69.3802 148.962 69.4717 149.124 69.5316C149.285 69.5915 149.457 69.6185 149.63 69.6109C149.803 69.6113 149.975 69.5782 150.135 69.5137C150.296 69.4492 150.441 69.3545 150.564 69.235C150.687 69.1155 150.784 68.9736 150.85 68.8174C150.916 68.6612 150.95 68.4938 150.95 68.3249V59.1182C150.945 58.7778 150.804 58.4526 150.558 58.2111C150.312 57.9695 149.979 57.8305 149.63 57.8232ZM144.716 66.8589C143.214 66.8589 142.04 65.4682 142.04 63.7509C142.04 62.0349 143.248 60.7909 144.716 60.7909C146.183 60.7909 147.504 61.9685 147.504 63.7509C147.504 65.5333 146.22 66.8589 144.716 66.8589ZM185.557 63.4651C185.482 59.7855 183.025 57.7135 179.765 57.7135C175.715 57.7135 174.007 60.5714 174.007 63.8593C174.007 68.0391 176.833 69.824 180.241 69.824C181.523 69.824 182.88 69.6441 183.905 68.8939C184.118 68.7724 184.297 68.6011 184.425 68.3955C184.553 68.1899 184.626 67.9565 184.639 67.7163C184.641 67.3627 184.501 67.0224 184.248 66.7685C183.996 66.5146 183.651 66.3674 183.288 66.3588C182.978 66.3613 182.674 66.4481 182.411 66.6088C181.716 66.8982 180.966 67.0437 180.21 67.0362C179.366 67.0362 177.423 66.7071 177.423 64.7512H184.233C184.581 64.7447 184.913 64.6072 185.16 64.3675C185.407 64.1278 185.549 63.8045 185.557 63.4651ZM177.415 62.6358C177.415 61.2451 178.921 60.782 179.835 60.782C180.751 60.782 182.255 61.2451 182.292 62.6358H177.415ZM223.382 57.8232C223.211 57.8233 223.041 57.8568 222.883 57.9216C222.725 57.9865 222.581 58.0814 222.462 58.2009C222.342 58.3206 222.248 58.4626 222.185 58.6185C222.123 58.7744 222.094 58.9408 222.099 59.108L222.025 59.5035C221.542 58.9454 220.943 58.4942 220.266 58.18C219.59 57.8658 218.853 57.6959 218.103 57.6816C214.803 57.6816 212.42 60.3941 212.42 63.6782C212.42 66.9635 214.782 69.7883 217.917 69.7883C219.237 69.7883 221.33 69.2154 221.987 67.9663L222.062 68.358C222.06 68.526 222.093 68.6926 222.158 68.8478C222.224 69.0031 222.321 69.1438 222.445 69.2613C222.568 69.3789 222.715 69.4706 222.876 69.5307C223.037 69.5909 223.21 69.6182 223.382 69.6109C223.643 69.6108 223.898 69.5354 224.116 69.3942C224.333 69.2529 224.502 69.0522 224.603 68.8173C224.668 68.6617 224.702 68.4945 224.702 68.3249V59.1182C224.696 58.778 224.556 58.4532 224.31 58.2118C224.064 57.9703 223.731 57.8311 223.382 57.8232ZM218.468 66.8589C217.003 66.8589 215.792 65.4682 215.792 63.7509C215.792 62.0349 216.967 60.7909 218.468 60.7909C219.97 60.7909 221.255 61.9685 221.255 63.7509C221.255 65.5333 219.98 66.8589 218.475 66.8589H218.468ZM234.313 57.7046C233.578 57.6915 232.848 57.8241 232.168 58.0943C231.487 58.3645 230.87 58.7667 230.354 59.2764C230.354 58.4573 229.804 57.8488 229.072 57.8488C228.898 57.8483 228.726 57.8812 228.566 57.9456C228.405 58.01 228.259 58.1047 228.137 58.2242C228.014 58.3436 227.916 58.4856 227.85 58.6419C227.783 58.7982 227.749 58.9657 227.749 59.1348V72.9945C227.75 73.43 227.928 73.8474 228.245 74.1554C228.561 74.4634 228.989 74.6368 229.436 74.6378C229.883 74.6375 230.312 74.4643 230.629 74.1562C230.945 73.8481 231.123 73.4304 231.124 72.9945V68.825C232.038 69.5012 233.506 69.7883 234.499 69.8112C237.689 69.8112 240 66.9903 240 63.7024C240 60.4132 237.577 57.7046 234.313 57.7046ZM233.908 66.8487C232.406 66.8487 231.124 65.5345 231.124 63.742C231.124 61.9494 232.406 60.782 233.908 60.782C235.41 60.782 236.585 61.9596 236.585 63.742C236.585 65.4669 235.414 66.8589 233.908 66.8589V66.8487Z" fill="black"/>
</svg>
