<svg width="21" height="25" viewBox="0 0 21 25" fill="none" xmlns="http://www.w3.org/2000/svg">
<g clip-path="url(#clip0_2453_1591)">
<path fill-rule="evenodd" clip-rule="evenodd" d="M12.1424 8.9233C12.8766 8.55722 13.8108 8.01834 14.7461 7.28002C14.9433 7.68954 14.9649 8.0469 14.8633 8.33546C14.7913 8.53882 14.6556 8.7157 14.4772 8.85642C14.284 9.0085 14.0427 9.11922 13.776 9.17906C13.2699 9.29306 12.679 9.2265 12.1424 8.9233ZM12.2697 12.6742L13.2416 13.2355C11.2573 14.3477 10.7178 16.4128 10.077 18.4243C9.43629 16.4128 8.89677 14.3477 6.91253 13.2355L7.88437 12.6742C7.97838 12.6387 8.05874 12.5743 8.11392 12.4903C8.16911 12.4063 8.19629 12.307 8.19157 12.2066C8.10253 10.3228 8.61117 9.48978 9.29725 8.96674C9.54333 8.77938 9.81197 8.6853 10.077 8.6853C10.342 8.6853 10.6107 8.77938 10.8568 8.96674C11.5429 9.48978 12.0516 10.3228 11.9625 12.2066C11.9578 12.307 11.985 12.4063 12.0402 12.4903C12.0954 12.5743 12.1757 12.6387 12.2697 12.6742ZM10.077 0.374023C11.2004 0.404183 12.3265 0.622263 13.3039 1.0465C13.9807 1.34066 14.6122 1.72922 15.1841 2.19386C15.4423 2.40362 15.6549 2.60626 15.8892 2.83954C16.5209 2.86138 17.4442 2.15954 17.8728 1.50282C17.1352 3.92122 13.7689 6.77714 11.4385 7.86994C11.4375 7.86954 11.4368 7.86898 11.4361 7.8685C11.0179 7.54914 10.5475 7.38946 10.077 7.38946C9.60653 7.38946 9.13621 7.54914 8.71797 7.8685C8.71725 7.8689 8.71661 7.86962 8.71565 7.86994C6.38509 6.77714 3.01893 3.92122 2.28125 1.50282C2.70981 2.15954 3.63309 2.86138 4.26485 2.83954C4.49917 2.60634 4.71181 2.40362 4.96997 2.19386C5.54181 1.72922 6.17333 1.34066 6.85013 1.0465C7.82757 0.622263 8.95373 0.404183 10.077 0.374023ZM8.01157 8.9233C7.27749 8.55722 6.34325 8.01834 5.40805 7.28002C5.21085 7.68954 5.18925 8.0469 5.29077 8.33546C5.36285 8.53882 5.49853 8.7157 5.67685 8.85642C5.87013 9.0085 6.11141 9.11922 6.37813 9.17906C6.88421 9.29306 7.47501 9.2265 8.01157 8.9233Z" fill="#1F67B4"/>
<path fill-rule="evenodd" clip-rule="evenodd" d="M15.7734 6.37525C16.2882 5.85565 16.7419 5.28053 17.1067 4.76733L17.292 5.11605C17.8885 6.30941 18.1984 7.49797 18.1984 8.83557L18.1971 10.9581L18.2083 12.0585C18.2515 14.7597 18.836 17.4928 20.16 19.9939L17.3898 17.7601L15.4298 20.9409L13.3706 19.0024L10.08 24.3423L6.78944 19.0025L4.73032 20.9409L2.77024 17.7602L0 19.994C1.324 17.4929 1.90848 14.7598 1.95176 12.0585L1.96296 10.9582L1.96168 8.83565C1.96168 7.49797 2.27152 6.30941 2.86816 5.11613L3.05336 4.76741C3.41816 5.28061 3.87176 5.85565 4.38672 6.37533L4.22592 6.70933C3.91352 7.35805 3.81008 8.08341 4.05344 8.77325C4.21032 9.21757 4.49664 9.59861 4.86576 9.88949C5.22416 10.172 5.64832 10.3624 6.0924 10.4624C6.38168 10.5275 6.6764 10.5543 6.9692 10.5452C6.90088 10.9325 6.87104 11.3341 6.86912 11.7434L4.256 13.2527L6.27248 14.383C6.43365 14.4734 6.58708 14.5769 6.7312 14.6925C8.39368 16.1852 9.3932 20.6009 10.0801 22.7578C10.767 20.6009 11.7665 16.1852 13.429 14.6925C13.5731 14.5769 13.7266 14.4734 13.8878 14.383L15.9042 13.2527L13.291 11.7434C13.2891 11.3341 13.2593 10.9325 13.191 10.5452C13.4838 10.5543 13.7785 10.5275 14.0678 10.4624C14.5118 10.3624 14.9361 10.172 15.2944 9.88949C15.6634 9.59861 15.9498 9.21757 16.1066 8.77325C16.3501 8.08341 16.2466 7.35813 15.9342 6.70933L15.7734 6.37533L15.7734 6.37525Z" fill="#1F67B4"/>
</g>
<defs>
<clipPath id="clip0_2453_1591">
<rect width="20.16" height="24" fill="white" transform="translate(0 0.374023)"/>
</clipPath>
</defs>
</svg>
