<svg width="100" height="128" viewBox="0 0 100 128" fill="none" xmlns="http://www.w3.org/2000/svg">
<path d="M19.7894 39.0302C19.1836 45.4907 18.7585 56.924 22.5738 61.7905C22.5738 61.7905 20.7778 49.2309 36.8784 33.473C43.3612 27.1294 44.8597 18.5013 42.596 12.0303C41.3101 8.36441 38.9614 5.33608 36.921 3.22156C35.7307 1.97835 36.6446 -0.0724116 38.3769 0.00196849C48.8556 0.4695 65.8384 3.38095 73.0545 21.4872C76.2215 29.4352 76.4553 37.6489 74.9462 46.0007C73.9897 51.3348 70.5889 63.1931 78.347 64.6489C83.8839 65.6902 86.562 61.2911 87.763 58.1247C88.2625 56.8071 89.9947 56.4777 90.93 57.5296C100.282 68.166 101.079 80.6937 99.145 91.4788C95.4041 112.326 74.2873 127.5 53.3086 127.5C27.1011 127.5 6.23932 112.507 0.829919 85.369C-1.34872 74.4139 -0.243457 52.7374 16.6543 37.4364C17.9083 36.2888 19.9594 37.3089 19.7894 39.0302V39.0302Z" fill="url(#paint0_radial_2439_1543)"/>
<path d="M62.1002 76.8477C52.5798 64.2504 56.8425 49.8765 59.1781 44.1485C59.4923 43.3948 58.6544 42.6842 57.9946 43.1472C53.8995 46.0112 45.5103 52.7513 41.6037 62.237C36.3146 75.0604 36.6917 81.3375 39.8232 89.0035C41.7084 93.6225 39.5195 94.6023 38.4198 94.7746C37.3515 94.9469 36.367 94.2147 35.5815 93.4503C33.3217 91.22 31.7114 88.3863 30.9313 85.2674C30.7637 84.5999 29.9154 84.4168 29.5278 84.9659C26.5953 89.1327 25.0766 95.819 25.0033 100.546C24.7729 115.156 36.5136 127 50.7156 127C68.6146 127 81.654 106.651 71.3691 89.6388C68.3842 84.686 65.5773 81.4451 62.1002 76.8477Z" fill="url(#paint1_radial_2439_1543)"/>
<defs>
<radialGradient id="paint0_radial_2439_1543" cx="0" cy="0" r="1" gradientUnits="userSpaceOnUse" gradientTransform="translate(48.1179 127.83) rotate(-179.751) scale(75.0171 123.067)">
<stop offset="0.314" stop-color="#FF9800"/>
<stop offset="0.662" stop-color="#FF6D00"/>
<stop offset="0.972" stop-color="#F44336"/>
</radialGradient>
<radialGradient id="paint1_radial_2439_1543" cx="0" cy="0" r="1" gradientUnits="userSpaceOnUse" gradientTransform="translate(51.7 51.6944) rotate(90.563) scale(79.5204 58.214)">
<stop offset="0.214" stop-color="#FFF176"/>
<stop offset="0.328" stop-color="#FFF27D"/>
<stop offset="0.487" stop-color="#FFF48F"/>
<stop offset="0.672" stop-color="#FFF7AD"/>
<stop offset="0.793" stop-color="#FFF9C4"/>
<stop offset="0.822" stop-color="#FFF8BD" stop-opacity="0.804"/>
<stop offset="0.863" stop-color="#FFF6AB" stop-opacity="0.529"/>
<stop offset="0.91" stop-color="#FFF38D" stop-opacity="0.209"/>
<stop offset="0.941" stop-color="#FFF176" stop-opacity="0"/>
</radialGradient>
</defs>
</svg>
