<svg width="201" height="81" viewBox="0 0 201 81" fill="none" xmlns="http://www.w3.org/2000/svg">
<path fill-rule="evenodd" clip-rule="evenodd" d="M100.542 15.1301L200.523 80.6375H193.164L100.542 21.6396L7.92067 80.6375H0.523438L100.542 15.1301Z" fill="black"/>
<path d="M117.625 18.3851C117.625 28.1868 109.959 36.1326 100.504 36.1326C91.0481 36.1326 83.3828 28.1868 83.3828 18.3851C83.3828 8.58349 91.0481 0.637695 100.504 0.637695C109.959 0.637695 117.625 8.58349 117.625 18.3851Z" fill="#1F67B4"/>
<path d="M100.501 9.4165L103.864 12.5598L108.268 13.9007L107.228 18.3849L108.268 22.8692L103.864 24.2101L100.501 27.3534L97.1381 24.2101L92.7344 22.8692L93.7749 18.3849L92.7344 13.9007L97.1381 12.5598L100.501 9.4165Z" fill="#EDB312"/>
<path fill-rule="evenodd" clip-rule="evenodd" d="M103.864 12.5598L100.501 9.4165L97.1381 12.5598L92.7344 13.9007L93.7749 18.3849L92.7344 22.8692L97.1381 24.2101L100.501 27.3534L103.864 24.2101L108.268 22.8692L107.228 18.3849L108.268 13.9007L103.864 12.5598ZM105.897 15.2695L102.838 14.3378L100.501 12.154L98.1647 14.3378L95.1051 15.2695L95.8281 18.3849L95.1051 21.5004L98.1647 22.4321L100.501 24.6159L102.838 22.4321L105.897 21.5004L105.174 18.3849L105.897 15.2695Z" fill="#000103"/>
<path fill-rule="evenodd" clip-rule="evenodd" d="M100.504 32.8049C108.186 32.8049 114.415 26.349 114.415 18.3851C114.415 10.4213 108.186 3.96534 100.504 3.96534C92.8211 3.96534 86.593 10.4213 86.593 18.3851C86.593 26.349 92.8211 32.8049 100.504 32.8049ZM100.504 36.1326C109.959 36.1326 117.625 28.1868 117.625 18.3851C117.625 8.58349 109.959 0.637695 100.504 0.637695C91.0481 0.637695 83.3828 8.58349 83.3828 18.3851C83.3828 28.1868 91.0481 36.1326 100.504 36.1326Z" fill="black"/>
</svg>
