<svg width="260" height="120" viewBox="0 0 260 120" fill="none" xmlns="http://www.w3.org/2000/svg">
<mask id="mask0_2449_1575" style="mask-type:luminance" maskUnits="userSpaceOnUse" x="0" y="40" width="260" height="40">
<path d="M260 40H0V80H260V40Z" fill="white"/>
</mask>
<g mask="url(#mask0_2449_1575)">
<path d="M61.5562 68.1307L48.0478 44.576C45.0997 39.6706 37.8391 39.6264 34.9789 44.797L20.8101 69.2797C18.1699 73.7874 21.4261 79.3998 26.7504 79.3998H55.22C60.5444 79.444 64.5487 73.6106 61.5562 68.1307Z" fill="#003087"/>
<path d="M42.0639 69.9866L41.2277 68.5282C40.4357 67.1583 38.7197 64.2416 38.7197 64.2416L27.2789 44.2665C24.3308 39.8473 17.2904 39.4495 14.3422 45.062L1.00951 68.2189C-1.76265 73.0801 1.53755 79.3997 7.5219 79.4438H35.8155H47.8721H55.0447C47.7401 79.4881 45.4082 75.6433 42.0639 69.9866Z" fill="#1877F2"/>
<path d="M42.0653 69.8983L41.2293 68.44C40.4372 67.07 38.7212 64.1533 38.7212 64.1533L31.3287 51.0723L20.7241 69.2796C18.084 73.7873 21.3401 79.3998 26.6644 79.3998H35.773H47.8297H55.0462C47.6977 79.3556 45.4096 75.5992 42.0653 69.8983Z" fill="url(#paint0_linear_2449_1575)"/>
<path d="M237.427 51.0029C239.407 49.1468 242.883 48.2629 247.943 48.2629H259.78V41.5015H245.787C242.443 41.5015 239.627 41.855 237.427 42.5621C235.27 43.2692 233.378 44.374 231.75 45.9207C230.034 47.6001 228.67 49.6771 227.702 52.1519C226.734 54.6708 226.25 57.4108 226.25 60.2833C226.25 63.0233 226.734 65.6748 227.702 68.1055C228.67 70.5361 230.034 72.6573 231.75 74.3366C233.334 75.8833 235.226 76.9881 237.339 77.6952C239.495 78.4023 242.355 78.7559 245.787 78.7559H259.78V72.0828H247.943C245.259 72.0828 243.411 71.9944 242.355 71.7734C241.255 71.5525 240.243 71.1989 239.407 70.6686C237.735 69.608 236.458 68.238 235.623 66.5145C234.83 64.8352 234.434 62.7139 234.434 60.2392C234.434 55.9966 235.447 52.859 237.427 51.0029Z" fill="black"/>
<path d="M134.414 78.844H167.416V72.3035H142.466V62.9788H164.248V56.7919H142.466V48.1301H167.416V41.5454H134.414V78.844Z" fill="black"/>
<path d="M175.641 41.5454L191.087 60.1947L175.641 78.844H185.63L197.819 64.0837V56.3499L185.63 41.5454H175.641Z" fill="black"/>
<path d="M213.134 41.5454L200.945 56.3499V64.0837L213.134 78.844H223.123L207.634 60.1947L223.123 41.5454H213.134Z" fill="black"/>
<path d="M102.071 59.9296L87.2423 41.5454H79.5859V78.844H87.6383V53.9635L100.487 69.431H103.611L116.46 53.831V78.844H124.512V41.5454H116.944L102.071 59.9296Z" fill="black"/>
</g>
<defs>
<linearGradient id="paint0_linear_2449_1575" x1="16.9393" y1="61.0278" x2="49.8461" y2="73.1356" gradientUnits="userSpaceOnUse">
<stop stop-color="#003087" stop-opacity="0"/>
<stop offset="1" stop-color="#003087"/>
</linearGradient>
</defs>
</svg>
