<svg width="260" height="120" viewBox="0 0 260 120" fill="none" xmlns="http://www.w3.org/2000/svg">
<path d="M56.9581 69.2301L50.9234 75.5635C50.7929 75.7011 50.6348 75.8108 50.459 75.886C50.2833 75.9611 50.0936 76 49.9017 76.0001H21.2949C21.1585 76.0001 21.025 75.9611 20.9109 75.8879C20.7968 75.8147 20.7069 75.7105 20.6523 75.5881C20.5978 75.4657 20.5808 75.3304 20.6036 75.1988C20.6264 75.0671 20.688 74.9448 20.7807 74.8468L26.8086 68.5135C26.9391 68.3759 27.0972 68.2661 27.2729 68.191C27.4487 68.1159 27.6384 68.077 27.8302 68.0768H56.437C56.5747 68.074 56.7102 68.1112 56.8264 68.1836C56.9425 68.256 57.0343 68.3604 57.09 68.4836C57.1457 68.6069 57.1629 68.7436 57.1394 68.8764C57.1159 69.0093 57.0528 69.1323 56.9581 69.2301ZM50.9234 56.4735C50.7924 56.3365 50.6342 56.2272 50.4585 56.1521C50.2829 56.077 50.0934 56.0378 49.9017 56.0368H21.2949C21.1585 56.0369 21.025 56.0759 20.9109 56.1491C20.7968 56.2223 20.7069 56.3264 20.6523 56.4488C20.5978 56.5712 20.5808 56.7065 20.6036 56.8382C20.6264 56.9699 20.688 57.0922 20.7807 57.1901L26.8086 63.5268C26.9396 63.6638 27.0978 63.7731 27.2734 63.8482C27.4491 63.9233 27.6385 63.9625 27.8302 63.9635H56.437C56.5732 63.9628 56.7062 63.9233 56.8198 63.8498C56.9334 63.7764 57.0228 63.6722 57.0769 63.5499C57.1311 63.4277 57.1477 63.2926 57.1248 63.1613C57.1019 63.0299 57.0404 62.9079 56.9479 62.8101L50.9234 56.4735ZM21.2949 51.9235H49.9017C50.0936 51.9233 50.2833 51.8845 50.4591 51.8093C50.6348 51.7342 50.7929 51.6244 50.9234 51.4868L56.9581 45.1535C57.0288 45.0803 57.0822 44.9927 57.1143 44.897C57.1464 44.8013 57.1566 44.6998 57.144 44.5998C57.1314 44.4998 57.0964 44.4037 57.0415 44.3185C56.9866 44.2333 56.9131 44.161 56.8263 44.1068C56.7101 44.0345 56.5747 43.9974 56.437 44.0001H27.8302C27.6384 44.0003 27.4487 44.0392 27.2729 44.1143C27.0972 44.1895 26.9391 44.2992 26.8086 44.4368L20.7807 50.7701C20.688 50.8681 20.6264 50.9904 20.6036 51.1221C20.5808 51.2538 20.5978 51.3891 20.6523 51.5115C20.7069 51.6339 20.7968 51.738 20.9109 51.8112C21.025 51.8844 21.1585 51.9234 21.2949 51.9235Z" fill="url(#paint0_linear_2449_1572)"/>
<path d="M91.8349 57.5331H76.5303V52.5997H95.8126V47.6664H76.4792C75.8186 47.6628 75.1638 47.7866 74.5521 48.0308C73.9404 48.2749 73.3839 48.6346 72.9142 49.0893C72.4446 49.5441 72.0711 50.0849 71.815 50.6809C71.559 51.2769 71.4254 51.9165 71.4219 52.5631V57.5631C71.4245 58.2102 71.5574 58.8505 71.8131 59.4473C72.0687 60.0441 72.4421 60.5857 72.9118 61.0411C73.3816 61.4965 73.9384 61.8568 74.5505 62.1014C75.1627 62.346 75.8181 62.47 76.4792 62.4664H91.8043V67.3997H71.7863V72.3331H91.8349C92.8298 72.3385 93.804 72.055 94.6342 71.5184C95.4644 70.9817 96.1133 70.2161 96.4989 69.3184C96.755 68.7225 96.8887 68.0829 96.8922 67.4364V62.4364C96.8896 61.7893 96.7566 61.149 96.5009 60.5522C96.2453 59.9555 95.8719 59.4139 95.4022 58.9585C94.9325 58.503 94.3757 58.1427 93.7635 57.8982C93.1514 57.6536 92.4961 57.5295 91.8349 57.5331ZM121.484 47.6664H106.121C105.125 47.6586 104.148 47.9407 103.316 48.4769C102.483 49.0131 101.832 49.7792 101.445 50.6781C101.188 51.2748 101.054 51.9154 101.05 52.5631V67.4364C101.054 68.0841 101.188 68.7247 101.445 69.3217C101.832 70.2206 102.483 70.9867 103.316 71.5229C104.148 72.059 105.125 72.341 106.121 72.3331H121.484C122.144 72.3367 122.799 72.2129 123.411 71.9687C124.023 71.7246 124.579 71.3648 125.049 70.9101C125.518 70.4554 125.892 69.9146 126.148 69.3186C126.404 68.7225 126.538 68.083 126.541 67.4364V52.5631C126.538 51.9165 126.404 51.277 126.148 50.681C125.892 50.085 125.518 49.5443 125.048 49.0897C124.579 48.6349 124.022 48.275 123.411 48.0308C122.799 47.7866 122.144 47.6628 121.484 47.6664ZM121.446 67.3997H106.159V52.5997H121.439L121.446 67.3997ZM175.292 47.6664H160.307C159.647 47.6628 158.992 47.7866 158.38 48.0308C157.768 48.2749 157.212 48.6346 156.742 49.0893C156.273 49.5441 155.899 50.0849 155.643 50.6809C155.387 51.2769 155.253 51.9165 155.25 52.5631V72.3331H160.358V64.2297H175.275V72.3331H180.383V52.5631C180.38 51.9136 180.245 51.2713 179.987 50.673C179.729 50.0748 179.352 49.5324 178.879 49.0772C178.406 48.6221 177.845 48.2631 177.229 48.0209C176.614 47.7788 175.955 47.6583 175.292 47.6664ZM175.254 59.2964H160.338V52.5997H175.254V59.2964ZM234.94 47.6664H219.956C219.295 47.6628 218.64 47.7866 218.029 48.0308C217.417 48.2749 216.861 48.6346 216.391 49.0893C215.921 49.5441 215.548 50.0849 215.292 50.6809C215.036 51.2769 214.902 51.9165 214.899 52.5631V72.3331H220.007V64.2297H234.889V72.3331H239.998V52.5631C239.994 51.9165 239.861 51.277 239.605 50.681C239.348 50.085 238.975 49.5443 238.505 49.0897C237.557 48.1714 236.274 47.6594 234.94 47.6664ZM234.889 59.2964H219.973V52.5997H234.889V59.2964ZM205.261 67.3997H203.217L195.913 49.7331C195.662 49.1235 195.232 48.601 194.676 48.2328C194.12 47.8646 193.464 47.6673 192.793 47.6664H188.26C187.597 47.6629 186.947 47.8522 186.393 48.2103C185.84 48.5684 185.407 49.0792 185.151 49.6781C184.98 50.0755 184.891 50.502 184.889 50.9331V72.3331H189.997V52.5997H192.04L199.342 70.2664C199.596 70.8749 200.03 71.3952 200.588 71.761C201.147 72.1268 201.803 72.3213 202.475 72.3197H207.008C207.448 72.3221 207.885 72.2393 208.293 72.0763C208.701 71.9133 209.072 71.6732 209.385 71.3697C210.017 70.7571 210.375 69.9238 210.379 69.0531V47.6664H205.261V67.3997ZM136.162 47.6664H131.053V67.4364C131.057 68.0843 131.191 68.7253 131.448 69.3223C131.705 69.9194 132.08 70.4609 132.552 70.9157C133.023 71.3706 133.582 71.7299 134.195 71.9732C134.809 72.2164 135.466 72.3387 136.128 72.3331H151.453V67.3997H136.162V47.6664Z" fill="black"/>
<defs>
<linearGradient id="paint0_linear_2449_1572" x1="23.6788" y1="76.7635" x2="52.9572" y2="43.0402" gradientUnits="userSpaceOnUse">
<stop offset="0.08" stop-color="#9945FF"/>
<stop offset="0.3" stop-color="#8752F3"/>
<stop offset="0.5" stop-color="#5497D5"/>
<stop offset="0.6" stop-color="#43B4CA"/>
<stop offset="0.72" stop-color="#28E0B9"/>
<stop offset="0.97" stop-color="#19FB9B"/>
</linearGradient>
</defs>
</svg>
