<svg width="12" height="14" viewBox="0 0 12 14" fill="none" xmlns="http://www.w3.org/2000/svg">
<path d="M6.00084 0.520752L8.25084 2.62364L11.197 3.52075L10.5008 6.52075L11.197 9.52075L8.25084 11.4179L6.00084 13.5208L3.75084 11.4179L0.804688 9.52075L1.50084 6.52075L0.804688 3.52075L3.75084 2.62364L6.00084 0.520752Z" fill="black"/>
<path d="M7.90859 2.98893L7.99336 3.06816L8.10435 3.10195L10.6035 3.86294L10.0129 6.40773L9.98671 6.52075L10.0129 6.63377L10.6035 9.17856L8.10435 9.93955L7.99336 9.97335L7.90859 10.0526L6 11.8364L4.09141 10.0526L4.00664 9.97335L3.89565 9.93955L1.39654 9.17856L1.98706 6.63377L2.01329 6.52075L1.98706 6.40773L1.39654 3.86294L3.89565 3.10195L4.00664 3.06816L4.09141 2.98893L6 1.20513L7.90859 2.98893Z" fill="#EDB312" stroke="#000103"/>
</svg>
