<svg width="20" height="16" viewBox="0 0 20 16" fill="none" xmlns="http://www.w3.org/2000/svg">
<path fill-rule="evenodd" clip-rule="evenodd" d="M15.1085 15.8234C15.2353 15.9138 15.3823 15.9717 15.5367 15.9919C15.6911 16.0122 15.8481 15.9942 15.9939 15.9394C16.1388 15.8846 16.2678 15.7944 16.369 15.677C16.4702 15.5596 16.5404 15.4187 16.5732 15.2673C17.2686 11.996 18.9549 3.73028 19.588 0.757656C19.6111 0.646887 19.6036 0.531932 19.5665 0.425066C19.5293 0.3182 19.4638 0.223436 19.377 0.150891C19.2906 0.0780969 19.1866 0.0294113 19.0754 0.00976795C18.9643 -0.00987541 18.8498 0.000221517 18.7438 0.0390356C15.385 1.27684 5.05626 5.15274 0.834228 6.7145C0.703424 6.76158 0.590908 6.8489 0.512847 6.96393C0.434786 7.07896 0.395197 7.21577 0.39977 7.35471C0.404343 7.49365 0.452841 7.62757 0.538297 7.73721C0.623753 7.84686 0.741767 7.9266 0.875382 7.96497C2.76954 8.53163 5.25464 9.3199 5.25464 9.3199C5.25464 9.3199 6.41541 12.8275 7.02217 14.6119C7.05788 14.7228 7.12068 14.8231 7.20488 14.9036C7.28908 14.9841 7.39204 15.0424 7.50442 15.0731C7.61778 15.1025 7.73676 15.1028 7.85024 15.0738C7.96373 15.0448 8.06802 14.9876 8.15339 14.9074L10.6301 12.569C10.6301 12.569 13.4855 14.6626 15.1085 15.8234ZM6.30039 8.8767L7.64371 13.3087L7.94235 10.5028L16.0909 3.15411C16.1328 3.11655 16.1589 3.06447 16.1637 3.00843C16.1686 2.95238 16.152 2.89657 16.1173 2.85231C16.0826 2.80784 16.0325 2.7779 15.9769 2.76834C15.9213 2.75878 15.8642 2.77029 15.8166 2.80061L6.30039 8.8767Z" fill="#1F67B4"/>
</svg>
