<svg width="81" height="81" viewBox="0 0 81 81" fill="none" xmlns="http://www.w3.org/2000/svg">
<rect x="0.570312" y="0.75" width="80" height="80" rx="40" fill="url(#paint0_linear_2439_1550)"/>
<path d="M58.9303 31.2848C58.9303 31.2848 58.3223 31.2756 57.1063 31.2571C56.2588 31.2571 55.1718 31.2848 53.8453 31.3401L52.1872 31.3953C49.7552 31.4874 47.8852 31.5335 46.5771 31.5335C45.2875 31.5335 44.5597 31.469 44.3939 31.3401C44.2465 31.2111 44.0992 30.8795 43.9518 30.3452C43.4912 28.7239 42.2936 27.904 40.3591 27.8856L39.6406 28.0514C38.1114 28.4199 37.181 28.8805 36.8494 29.4332C36.6836 29.7096 36.6007 30.0504 36.6007 30.4557C36.6007 30.861 36.7389 31.2387 37.0152 31.5888C37.31 31.9388 37.6324 32.2244 37.9825 32.4455C38.3325 32.6481 38.83 32.86 39.4748 33.0811C40.1381 33.3022 40.6539 33.4588 41.0224 33.5509C41.3909 33.6246 41.9344 33.7443 42.6529 33.9102L46.8535 34.8498C50.7593 35.8815 53.6519 36.9593 55.5311 38.0831C58.9947 40.6993 60.7266 44.2919 60.7266 48.861C60.7266 51.9009 59.9159 54.3973 58.2946 56.3503C56.6733 58.2847 54.702 59.7494 52.3806 60.7443C50.0777 61.7208 47.526 62.4854 44.7256 63.0381L44.8085 67.8467L44.8361 68.3165C44.7993 68.6481 44.5874 68.8139 44.2005 68.8139C41.4369 68.8139 38.6734 68.7586 35.9098 68.6481L35.136 67.9296C35.1544 67.4874 35.1637 66.8886 35.1637 66.1333C35.1637 64.6041 34.9702 63.646 34.5833 63.2591C34.2148 62.8723 33.2844 62.5498 31.7921 62.2919C30.3182 62.0524 28.8259 61.5181 27.3151 60.689C25.8044 59.8415 24.5792 58.8006 23.6396 57.5662C21.8157 55.1896 20.7379 52.2878 20.4062 48.861C20.4431 48.5662 20.9037 48.4188 21.788 48.4188L23.1145 48.4741H36.3243C36.5454 48.5662 36.7389 48.9992 36.9047 49.773C37.0705 50.5284 37.2547 51.1179 37.4574 51.5417C37.9364 52.5181 38.8576 53.0063 40.221 53.0063C41.5843 53.0063 42.6713 52.7116 43.482 52.122C44.2926 51.514 44.6979 50.7587 44.6979 49.8559C44.6979 48.9347 44.4031 48.2715 43.8136 47.8661C43.224 47.4424 42.7082 47.2213 42.266 47.2029C41.8238 47.166 41.4461 47.1015 41.1329 47.0094C40.8382 46.8989 40.442 46.7607 39.9446 46.5949C39.4656 46.4291 39.0234 46.2909 38.6181 46.1804L37.5679 45.904C32.5935 44.5959 29.3878 43.5918 27.9508 42.8917C23.5659 40.9204 21.3735 37.4844 21.3735 32.5837C21.3735 26.4486 24.2752 22.2664 30.0787 20.0371C31.7921 19.3923 33.6437 18.858 35.6335 18.4342C35.5413 17.1814 35.4953 15.9747 35.4953 14.814C35.4953 13.6349 35.5505 12.9348 35.6611 12.7137C36.6928 12.7505 37.4113 12.7689 37.8167 12.7689L43.5649 12.686C43.9702 12.686 44.1729 13.4506 44.1729 14.9798L44.0623 18.5171C50.658 18.9593 55.0613 20.9491 57.2721 24.4864C58.396 26.292 58.9579 28.5396 58.9579 31.2295L58.9303 31.2848Z" fill="url(#paint1_linear_2439_1550)"/>
<defs>
<linearGradient id="paint0_linear_2439_1550" x1="40.5703" y1="0.75" x2="40.5703" y2="80.75" gradientUnits="userSpaceOnUse">
<stop stop-color="#EEC005"/>
<stop offset="1" stop-color="#FFA600"/>
</linearGradient>
<linearGradient id="paint1_linear_2439_1550" x1="40.5664" y1="12.686" x2="40.5664" y2="68.8139" gradientUnits="userSpaceOnUse">
<stop stop-color="white"/>
<stop offset="1" stop-color="#FFD078"/>
</linearGradient>
</defs>
</svg>
